<svg width="57" height="56" viewBox="0 0 57 56" fill="none" xmlns="http://www.w3.org/2000/svg">
<path d="M51.6934 56C48.7673 56 46.3867 53.6612 46.3867 50.7865C46.3867 47.9117 48.7673 45.5729 51.6934 45.5729C54.6194 45.5729 57 47.9117 57 50.7865C57 53.6612 54.6194 56 51.6934 56ZM51.6934 46.8854C49.5039 46.8854 47.7227 48.6354 47.7227 50.7865C47.7227 52.9375 49.5039 54.6875 51.6934 54.6875C53.8828 54.6875 55.6641 52.9375 55.6641 50.7865C55.6641 48.6354 53.8828 46.8854 51.6934 46.8854ZM21.0781 56C18.152 56 15.7715 53.6612 15.7715 50.7865C15.7715 47.9117 18.152 45.5729 21.0781 45.5729C24.0042 45.5729 26.3848 47.9117 26.3848 50.7865C26.3848 53.6612 24.0042 56 21.0781 56ZM21.0781 46.8854C18.8887 46.8854 17.1074 48.6354 17.1074 50.7865C17.1074 52.9375 18.8887 54.6875 21.0781 54.6875C23.2676 54.6875 25.0488 52.9375 25.0488 50.7865C25.0488 48.6354 23.2676 46.8854 21.0781 46.8854ZM36.5898 54.4323H35.2539V47.1406H36.5917L36.5898 54.4323ZM5.97461 54.4323H4.63867V47.1406H5.97461V54.4323ZM35.9219 41.4167C32.9958 41.4167 30.6152 39.0779 30.6152 36.2031C30.6152 33.3284 32.9958 30.9896 35.9219 30.9896C38.8479 30.9896 41.2285 33.3284 41.2285 36.2031C41.2285 39.0779 38.8479 41.4167 35.9219 41.4167ZM35.9219 32.3021C33.7324 32.3021 31.9512 34.0521 31.9512 36.2031C31.9512 38.3542 33.7324 40.1042 35.9219 40.1042C38.1113 40.1042 39.8926 38.3542 39.8926 36.2031C39.8926 34.0521 38.1113 32.3021 35.9219 32.3021ZM5.30664 41.4167C2.38057 41.4167 0 39.0779 0 36.2031C0 33.3284 2.38057 30.9896 5.30664 30.9896C8.23271 30.9896 10.6133 33.3284 10.6133 36.2031C10.6133 39.0779 8.23271 41.4167 5.30664 41.4167ZM5.30664 32.3021C3.11719 32.3021 1.33594 34.0521 1.33594 36.2031C1.33594 38.3542 3.11719 40.1042 5.30664 40.1042C7.49609 40.1042 9.27734 38.3542 9.27734 36.2031C9.27734 34.0521 7.49609 32.3021 5.30664 32.3021ZM52.3613 39.849H51.0254V32.5573H52.3632L52.3613 39.849ZM21.7461 39.849H20.4102V32.5573H21.7461V39.849ZM51.6934 25.0104C48.7673 25.0104 46.3867 22.6716 46.3867 19.7969C46.3867 16.9221 48.7673 14.5833 51.6934 14.5833C54.6194 14.5833 57 16.9221 57 19.7969C57 22.6716 54.6194 25.0104 51.6934 25.0104ZM51.6934 15.8958C49.5039 15.8958 47.7227 17.6458 47.7227 19.7969C47.7227 21.9479 49.5039 23.6979 51.6934 23.6979C53.8828 23.6979 55.6641 21.9479 55.6641 19.7969C55.6641 17.6458 53.8828 15.8958 51.6934 15.8958ZM21.0781 25.0104C18.152 25.0104 15.7715 22.6716 15.7715 19.7969C15.7715 16.9221 18.152 14.5833 21.0781 14.5833C24.0042 14.5833 26.3848 16.9221 26.3848 19.7969C26.3848 22.6716 24.0042 25.0104 21.0781 25.0104ZM21.0781 15.8958C18.8887 15.8958 17.1074 17.6458 17.1074 19.7969C17.1074 21.9479 18.8887 23.6979 21.0781 23.6979C23.2676 23.6979 25.0488 21.9479 25.0488 19.7969C25.0488 17.6458 23.2676 15.8958 21.0781 15.8958ZM36.5898 23.4427H35.2539V16.151H36.5917L36.5898 23.4427ZM5.97461 23.4427H4.63867V16.151H5.97461V23.4427ZM35.9219 10.4271C32.9958 10.4271 30.6152 8.08828 30.6152 5.21354C30.6152 2.3388 32.9958 0 35.9219 0C38.8479 0 41.2285 2.3388 41.2285 5.21354C41.2285 8.08828 38.8479 10.4271 35.9219 10.4271ZM35.9219 1.3125C33.7324 1.3125 31.9512 3.0625 31.9512 5.21354C31.9512 7.36458 33.7324 9.11458 35.9219 9.11458C38.1113 9.11458 39.8926 7.36458 39.8926 5.21354C39.8926 3.0625 38.1113 1.3125 35.9219 1.3125ZM5.30664 10.4271C2.38057 10.4271 0 8.08828 0 5.21354C0 2.3388 2.38057 0 5.30664 0C8.23271 0 10.6133 2.3388 10.6133 5.21354C10.6133 8.08828 8.23271 10.4271 5.30664 10.4271ZM5.30664 1.3125C3.11719 1.3125 1.33594 3.0625 1.33594 5.21354C1.33594 7.36458 3.11719 9.11458 5.30664 9.11458C7.49609 9.11458 9.27734 7.36458 9.27734 5.21354C9.27734 3.0625 7.49609 1.3125 5.30664 1.3125ZM52.3613 8.85938H51.0254V1.56771H52.3632L52.3613 8.85938ZM21.7461 8.85938H20.4102V1.56771H21.7461V8.85938Z" fill="url(#paint0_linear_542_19944)"/>
<defs>
<linearGradient id="paint0_linear_542_19944" x1="57" y1="56" x2="4" y2="-2.49999" gradientUnits="userSpaceOnUse">
<stop stop-color="#004940"/>
<stop offset="1" stop-color="#F5B7AE"/>
</linearGradient>
</defs>
</svg>
