<svg width="57" height="57" viewBox="0 0 57 57" fill="none" xmlns="http://www.w3.org/2000/svg">
<path d="M32.682 43.379L38.7193 49.4901L32.682 55.6013L31.7357 54.6438L36.1626 50.166H10.8723C4.87771 50.166 0 45.2301 0 39.164C0 33.0979 4.87585 28.1621 10.8723 28.1621H17.3661V29.5138H10.8723C5.61428 29.5138 1.33585 33.8433 1.33585 39.164C1.33585 44.4848 5.61428 48.8142 10.8723 48.8142H36.1626L31.7357 44.3365L32.682 43.379ZM46.124 28.1621H39.6302V29.5138H46.124C52.1186 29.5138 56.9963 24.5798 56.9963 18.5119C56.9963 12.4439 52.1186 7.50988 46.124 7.50988H20.8337L25.2587 3.03024L24.3143 2.0746L18.277 8.18577L24.3162 14.2951L25.2606 13.3394L20.8337 8.86166H46.124C51.382 8.86166 55.6604 13.1911 55.6604 18.5119C55.6604 23.8326 51.382 28.1621 46.124 28.1621ZM52.2188 48.6265C52.8997 47.8323 53.2856 46.811 53.2856 45.7352C53.2856 43.2907 51.3208 41.3043 48.907 41.3043C46.4932 41.3043 44.5284 43.2926 44.5284 45.7352C44.5284 46.811 44.9143 47.8323 45.5952 48.6265C42.7324 49.9313 40.8177 52.8414 40.8177 56.0594V57H42.1554V56.0594C42.1554 53.0461 44.1721 50.3575 47.059 49.5202C47.3114 49.4488 47.4969 49.2348 47.5359 48.9738C47.5748 48.711 47.4617 48.4519 47.2446 48.3073C46.38 47.7309 45.8642 46.7715 45.8642 45.7352C45.8642 44.0379 47.2279 42.6561 48.907 42.6561C50.5861 42.6561 51.9497 44.0361 51.9497 45.7352C51.9497 46.7715 51.4358 47.7309 50.5731 48.3054C50.356 48.45 50.241 48.711 50.2818 48.9719C50.3207 49.2329 50.5063 49.4469 50.7586 49.5183C53.6455 50.3556 55.6623 53.0442 55.6623 56.0575V57H57V56.0594C56.9963 52.8414 55.0816 49.9313 52.2188 48.6265ZM1.33585 14.7569C1.33585 11.7436 3.35261 9.05316 6.24139 8.21769C6.49186 8.14447 6.6774 7.93043 6.71822 7.66947C6.75718 7.40662 6.64215 7.14753 6.42507 7.00296C5.56233 6.42846 5.04655 5.46719 5.04655 4.43083C5.04655 2.7336 6.41208 1.35178 8.08932 1.35178C9.76655 1.35178 11.1321 2.7336 11.1321 4.43083C11.1321 5.46719 10.6182 6.42846 9.75542 7.00296C9.53649 7.14753 9.42146 7.40662 9.46042 7.66947C9.49938 7.93043 9.68677 8.14447 9.93724 8.21769C12.826 9.05316 14.8428 11.7417 14.8428 14.7569V15.6957H16.1786V14.7569C16.1786 11.5389 14.2639 8.62885 11.4011 7.32401C12.082 6.52984 12.4661 5.5085 12.4661 4.43083C12.4661 1.98824 10.5031 0 8.08932 0C5.67551 0 3.71255 1.98824 3.71255 4.43083C3.71255 5.5085 4.09846 6.52984 4.77752 7.32401C1.91472 8.62885 0 11.5371 0 14.7569V15.6957H1.33585V14.7569ZM20.4088 35.4072V36.3478H21.7447V35.4072C21.7447 32.3939 23.7614 29.7053 26.6502 28.8699C26.9007 28.7966 27.0862 28.5826 27.127 28.3216C27.166 28.0607 27.051 27.7997 26.8339 27.6551C25.9712 27.0825 25.4572 26.1212 25.4572 25.083C25.4572 23.3858 26.8228 22.004 28.5 22.004C30.1772 22.004 31.5428 23.3858 31.5428 25.083C31.5428 26.1194 31.0288 27.0806 30.1661 27.6551C29.9472 27.8016 29.834 28.0607 29.873 28.3216C29.9119 28.5826 30.0993 28.7966 30.3498 28.8699C33.2367 29.7053 35.2535 32.3939 35.2535 35.4072V36.3478H36.5912V35.4072C36.5912 32.1892 34.6765 29.281 31.8137 27.9762C32.4946 27.182 32.8805 26.1607 32.8805 25.083C32.8805 22.6404 30.9157 20.6522 28.5019 20.6522C26.088 20.6522 24.1251 22.6404 24.1251 25.083C24.1251 26.1607 24.511 27.182 25.1901 27.9762C22.3235 29.281 20.4088 32.1892 20.4088 35.4072Z" fill="url(#paint0_linear_542_19940)"/>
<defs>
<linearGradient id="paint0_linear_542_19940" x1="57" y1="57" x2="5" y2="2" gradientUnits="userSpaceOnUse">
<stop stop-color="#230751"/>
<stop offset="1" stop-color="#F5B7AE"/>
</linearGradient>
</defs>
</svg>
