<svg width="57" height="57" viewBox="0 0 57 57" fill="none" xmlns="http://www.w3.org/2000/svg">
<path d="M56.332 0H0.667969C0.29873 0 0 0.299775 0 0.670303V30.4616C0 30.8321 0.29873 31.1319 0.667969 31.1319H56.332C56.7013 31.1319 57 30.8321 57 30.4616V0.670303C57 0.299775 56.7013 0 56.332 0ZM55.6641 7.37706C52.4819 7.05681 49.9678 4.53386 49.6468 1.34061H55.6641V7.37706ZM55.6641 8.71581V22.4068C51.7435 22.7363 48.6355 25.8551 48.309 29.7913H8.69102C8.36631 25.8551 5.2584 22.7363 1.33594 22.4068V8.71581C5.25469 8.3881 8.36074 5.27119 8.68916 1.33874H48.309C48.6393 5.27305 51.7453 8.3881 55.6641 8.71581ZM7.35508 1.34061C7.03408 4.53386 4.51992 7.05681 1.33594 7.37706V1.34061H7.35508ZM1.33594 23.7474C4.52178 24.0676 7.03779 26.5943 7.35508 29.7913H1.33594V23.7474ZM49.6468 29.7913C49.9641 26.5943 52.4801 24.0676 55.6641 23.7474V29.7913H49.6468ZM28.5 3.72018C21.9929 3.72018 16.6992 9.03234 16.6992 15.5622C16.6992 22.0921 21.9929 27.4042 28.5 27.4042C35.0071 27.4042 40.3008 22.0921 40.3008 15.5622C40.3008 9.03234 35.0071 3.72018 28.5 3.72018ZM36.8849 9.30605H33.8122C33.3409 7.84627 32.7138 6.60249 31.9623 5.66406C33.9458 6.36416 35.651 7.64518 36.8849 9.30605ZM18.0686 16.2325H22.2823C22.325 17.7481 22.5087 19.1781 22.813 20.4778H19.2579C18.5788 19.1967 18.165 17.7575 18.0686 16.2325ZM29.168 9.30605V5.17437C30.4705 5.57469 31.6246 7.12011 32.3965 9.30605H29.168ZM32.8065 10.6467C33.135 11.9333 33.3335 13.3763 33.3817 14.8919H29.168V10.6467H32.8065ZM27.832 5.17437V9.30605H24.6035C25.3754 7.12011 26.5295 5.57655 27.832 5.17437ZM27.832 10.6467V14.8919H23.6183C23.6665 13.3763 23.865 11.9333 24.1935 10.6467H27.832ZM22.2823 14.8919H18.0686C18.165 13.367 18.5788 11.9277 19.2579 10.6467H22.813C22.5087 11.9463 22.325 13.3763 22.2823 14.8919ZM23.6183 16.2325H27.832V20.4778H24.1935C23.865 19.1912 23.6646 17.7481 23.6183 16.2325ZM27.832 21.8184V25.9501C26.5295 25.5497 25.3754 24.0062 24.6017 21.8184H27.832ZM29.168 25.9501V21.8184H32.3965C31.6228 24.0043 30.4705 25.5479 29.168 25.9501ZM29.168 20.4778V16.2325H33.3817C33.3335 17.7481 33.135 19.1912 32.8065 20.4778H29.168ZM34.7177 16.2325H38.9296C38.8331 17.7575 38.4193 19.1967 37.7402 20.4778H34.1852C34.4913 19.1781 34.675 17.7481 34.7177 16.2325ZM34.7177 14.8919C34.675 13.3763 34.4913 11.9463 34.187 10.6467H37.7421C38.4212 11.9277 38.835 13.367 38.9314 14.8919H34.7177ZM25.0377 5.66406C24.2862 6.60249 23.6572 7.84627 23.1878 9.30605H20.1151C21.349 7.64518 23.0542 6.36416 25.0377 5.66406ZM20.1151 21.8184H23.1878C23.6572 23.2781 24.2862 24.5219 25.0377 25.4604C23.0542 24.7603 21.349 23.4792 20.1151 21.8184ZM31.9623 25.4604C32.7138 24.5219 33.3428 23.2781 33.8122 21.8184H36.8849C35.651 23.4792 33.9458 24.7603 31.9623 25.4604ZM9.01758 12.099C7.11572 12.099 5.56641 13.6537 5.56641 15.5622C5.56641 17.4707 7.11387 19.0254 9.01758 19.0254C10.9213 19.0254 12.4687 17.4707 12.4687 15.5622C12.4687 13.6537 10.9194 12.099 9.01758 12.099ZM9.01758 17.6848C7.85234 17.6848 6.90234 16.7315 6.90234 15.5622C6.90234 14.3929 7.85234 13.4396 9.01758 13.4396C10.1828 13.4396 11.1328 14.3929 11.1328 15.5622C11.1328 16.7315 10.1828 17.6848 9.01758 17.6848ZM47.9824 12.099C46.0806 12.099 44.5312 13.6518 44.5312 15.5622C44.5312 17.4726 46.0806 19.0254 47.9824 19.0254C49.8843 19.0254 51.4336 17.4726 51.4336 15.5622C51.4336 13.6518 49.8843 12.099 47.9824 12.099ZM47.9824 17.6848C46.8153 17.6848 45.8672 16.7315 45.8672 15.5622C45.8672 14.3929 46.8153 13.4396 47.9824 13.4396C49.1495 13.4396 50.0977 14.3929 50.0977 15.5622C50.0977 16.7315 49.1495 17.6848 47.9824 17.6848ZM48.6151 36.3435C49.8973 37.632 49.8954 39.7285 48.6151 41.017L37.3599 52.3768C36.6733 53.0638 35.7697 53.507 34.8104 53.6299L21.3898 55.3L19.6958 57L18.7514 56.0504L20.6068 54.1885C20.7126 54.0823 20.848 54.0153 20.9965 53.9967L34.6453 52.2967C35.3096 52.2129 35.9386 51.9038 36.4154 51.4272L47.6688 40.0674C48.4314 39.3021 48.4314 38.0565 47.6688 37.2894C46.9768 36.5986 45.8728 36.4701 44.8615 37.3285L33.198 46.8896L33.1572 46.8393C32.3965 47.4836 31.4261 47.8857 30.3555 47.8857H21.0781V46.5451H30.3555C32.0328 46.5451 33.3984 45.1766 33.3984 43.4915C33.3984 42.8343 32.8659 42.2999 32.2109 42.2999H17.3672C12.619 42.2999 8.75781 46.1746 8.75781 50.9393C8.75781 51.1181 8.6873 51.2894 8.56299 51.4141L2.99658 57L2.05215 56.0504L7.42559 50.6582C7.57402 45.2846 11.977 40.9593 17.3672 40.9593H32.2109C33.6025 40.9593 34.7344 42.0951 34.7344 43.4915C34.7344 43.6461 34.7047 43.7913 34.6898 43.9403L44.008 36.3007C44.5034 35.8799 45.3068 35.3734 46.2865 35.3734C47.1642 35.3734 47.9898 35.7179 48.6151 36.3435Z" fill="url(#paint0_linear_542_19942)"/>
<defs>
<linearGradient id="paint0_linear_542_19942" x1="0" y1="0" x2="52.5" y2="50.5" gradientUnits="userSpaceOnUse">
<stop stop-color="#F5B7AE"/>
<stop offset="1" stop-color="#004940"/>
</linearGradient>
</defs>
</svg>
