<svg width="54" height="57" viewBox="0 0 54 57" fill="none" xmlns="http://www.w3.org/2000/svg">
<path d="M27 57C25.7722 57 24.7456 56.1409 24.4993 55.0035C16.6042 54.2892 9.54025 50.2739 4.96191 43.8967C4.72124 43.9709 4.46365 44.0117 4.19854 44.0117C2.78837 44.0117 1.64143 42.8799 1.64143 41.4883C1.64143 40.7461 1.96859 40.0763 2.48753 39.6143C0.836699 36.0852 0 32.3482 0 28.5C0 24.6518 0.836699 20.9148 2.48753 17.3857C1.96859 16.9237 1.64143 16.2539 1.64143 15.5117C1.64143 14.1201 2.78837 12.9883 4.19854 12.9883C4.46553 12.9883 4.72124 13.0272 4.96191 13.1033C9.54025 6.72607 16.6024 2.7127 24.4993 1.99648C24.7456 0.857226 25.7722 0 27 0C28.2278 0 29.2544 0.857226 29.5007 1.99648C37.3976 2.71084 44.4598 6.72607 49.0381 13.1033C49.2788 13.0272 49.5364 12.9883 49.8015 12.9883C51.2116 12.9883 52.3586 14.1201 52.3586 15.5117C52.3586 16.2539 52.0314 16.9237 51.5125 17.3857C53.1633 20.9148 54 24.6518 54 28.5C54 32.3538 53.1633 36.0907 51.5125 39.6143C52.0314 40.0763 52.3586 40.7442 52.3586 41.4883C52.3586 42.8799 51.2116 44.0117 49.8015 44.0117C49.5326 44.0117 49.275 43.9709 49.0306 43.8948C44.4503 50.2702 37.3845 54.2892 29.5007 55.0035C29.2544 56.1409 28.2278 57 27 57ZM27 53.2891C26.3363 53.2891 25.7967 53.8216 25.7967 54.4766C25.7967 55.1315 26.3363 55.6641 27 55.6641C27.6637 55.6641 28.2033 55.1315 28.2033 54.4766C28.2033 53.8216 27.6637 53.2891 27 53.2891ZM6.10132 43.1712C10.0874 48.6968 16.0383 52.3428 22.7601 53.4375C20.188 51.3074 18.0708 47.2829 16.7095 42.1562H6.66539C6.55822 42.5385 6.36267 42.8854 6.10132 43.1712ZM37.2905 42.1562C35.9292 47.2811 33.812 51.3074 31.2399 53.4356C37.9542 52.3409 43.9088 48.6894 47.893 43.1656C47.6336 42.8817 47.4418 42.5348 47.3346 42.1562H37.2905ZM27 51.9531C27.9401 51.9531 28.7636 52.456 29.2074 53.2037C32.007 51.7379 34.3818 47.6429 35.8859 42.1581H18.1159C19.6182 47.6429 21.993 51.7379 24.7926 53.2037C25.2364 52.456 26.0599 51.9531 27 51.9531ZM49.8015 40.3008C49.1377 40.3008 48.5981 40.8333 48.5981 41.4883C48.5981 42.1433 49.1377 42.6758 49.8015 42.6758C50.4652 42.6758 51.0048 42.1433 51.0048 41.4883C51.0048 40.8333 50.4633 40.3008 49.8015 40.3008ZM4.19854 40.3008C3.53482 40.3008 2.9952 40.8333 2.9952 41.4883C2.9952 42.1433 3.53482 42.6758 4.19854 42.6758C4.86226 42.6758 5.40188 42.1433 5.40188 41.4883C5.40188 40.8333 4.86226 40.3008 4.19854 40.3008ZM37.6214 40.8203H47.3346C47.6749 39.5976 49.0268 38.7645 50.3016 39.0131C51.8565 35.677 52.6444 32.1441 52.6444 28.5C52.6444 24.8614 51.8565 21.3268 50.3016 17.9869C49.4762 18.1446 48.5793 17.8663 48.004 17.306L38.6687 22.6237C38.8586 24.5182 38.9563 26.485 38.9563 28.5C38.9582 32.9309 38.4788 37.1242 37.6214 40.8203ZM17.7737 40.8203H36.2263C37.1043 37.1409 37.6026 32.9234 37.6026 28.5C37.6026 26.7484 37.5255 25.0284 37.3751 23.3603L16.7716 35.0962C17.0085 37.1075 17.3451 39.0279 17.7737 40.8203ZM6.72368 40.8203H16.3767C16.0101 39.2395 15.713 37.5695 15.493 35.8272L6.72368 40.8203ZM4.19854 38.9648C4.89798 38.9648 5.53162 39.2432 5.99415 39.6959L15.3295 34.3781C15.1414 32.4818 15.0418 30.5169 15.0418 28.5C15.0418 24.0691 15.5194 19.8758 16.3767 16.1797H6.66539C6.32319 17.4043 4.97319 18.2337 3.6984 17.9869C2.14157 21.3268 1.35376 24.8614 1.35376 28.5C1.35376 32.1386 2.14157 35.6732 3.6984 39.0131C3.8601 38.9815 4.02744 38.9648 4.19854 38.9648ZM17.7737 16.1797C16.8957 19.8591 16.3955 24.0784 16.3955 28.5C16.3955 30.2516 16.4745 31.9716 16.623 33.6396L37.2265 21.9038C36.9915 19.8943 36.6531 17.9721 36.2263 16.1797H17.7737ZM37.6214 16.1797C37.988 17.7605 38.287 19.4323 38.507 21.1746L47.2744 16.1797H37.6214ZM49.8015 14.3242C49.1377 14.3242 48.5981 14.8567 48.5981 15.5117C48.5981 16.1667 49.1377 16.6992 49.8015 16.6992C50.4652 16.6992 51.0048 16.1667 51.0048 15.5117C51.0048 14.8567 50.4633 14.3242 49.8015 14.3242ZM4.19854 14.3242C3.53482 14.3242 2.9952 14.8567 2.9952 15.5117C2.9952 16.1667 3.53482 16.6992 4.19854 16.6992C4.86226 16.6992 5.40188 16.1667 5.40188 15.5117C5.40188 14.8567 4.86226 14.3242 4.19854 14.3242ZM37.2905 14.8437H47.3365C47.4437 14.4615 47.6373 14.1146 47.9006 13.827C43.9164 8.30322 37.9636 4.65537 31.2418 3.5625C33.812 5.69258 35.9273 9.71523 37.2905 14.8437ZM18.1159 14.8437H35.8859C34.3818 9.35713 32.0089 5.26211 29.2074 3.79629C28.7618 4.54404 27.9401 5.04687 27 5.04687C26.0599 5.04687 25.2382 4.54404 24.7926 3.79814C21.993 5.26396 19.6182 9.35898 18.1159 14.8437ZM6.66539 14.8437H16.7095C18.0727 9.71523 20.1898 5.69072 22.762 3.5625C16.0383 4.65537 10.0874 8.30508 6.1032 13.827C6.36267 14.1146 6.55822 14.4615 6.66539 14.8437ZM27 1.33594C26.3363 1.33594 25.7967 1.86846 25.7967 2.52344C25.7967 3.17842 26.3363 3.71094 27 3.71094C27.6637 3.71094 28.2033 3.17842 28.2033 2.52344C28.2033 1.86846 27.6637 1.33594 27 1.33594Z" fill="url(#paint0_linear_542_19943)"/>
<defs>
<linearGradient id="paint0_linear_542_19943" x1="8" y1="6.5" x2="47" y2="52" gradientUnits="userSpaceOnUse">
<stop stop-color="#F5B7AE"/>
<stop offset="1" stop-color="#230751"/>
</linearGradient>
</defs>
</svg>
