<svg width="48" height="48" viewBox="0 0 48 48" fill="none" xmlns="http://www.w3.org/2000/svg">
<path fill-rule="evenodd" clip-rule="evenodd" d="M24 48C37.2548 48 48 37.2548 48 24C48 10.7452 37.2548 0 24 0C10.7452 0 0 10.7452 0 24C0 37.2548 10.7452 48 24 48ZM30.5241 35.2636H35.2655L35.2675 26.8881C35.2675 22.7764 34.3814 19.6158 29.5758 19.6158C28.6742 19.5824 27.7803 19.794 26.9895 20.2283C26.1986 20.6626 25.5404 21.3033 25.0848 22.082H25.0211V19.9956H20.4694V35.2631H25.2108V27.7103C25.2108 25.7187 25.5886 23.7897 28.0581 23.7897C30.4925 23.7897 30.5241 26.0688 30.5241 27.8392V35.2636ZM13.5908 17.4452C14.0433 17.7475 14.5753 17.9087 15.1195 17.9086C15.4808 17.9086 15.8386 17.8373 16.1724 17.699C16.5062 17.5607 16.8095 17.358 17.065 17.1025C17.3204 16.847 17.523 16.5436 17.6612 16.2098C17.7995 15.876 17.8706 15.5183 17.8705 15.157C17.8704 14.6128 17.7089 14.081 17.4065 13.6286C17.1041 13.1762 16.6743 12.8237 16.1715 12.6155C15.6687 12.4074 15.1155 12.353 14.5817 12.4592C14.048 12.5655 13.5578 12.8276 13.1731 13.2124C12.7883 13.5973 12.5264 14.0875 12.4203 14.6212C12.3142 15.1549 12.3688 15.7081 12.5772 16.2107C12.7855 16.7134 13.1382 17.143 13.5908 17.4452ZM12.7439 35.2636H17.4902V19.9956H12.7439V35.2636Z" fill="white"/>
</svg>
