<svg width="48" height="48" viewBox="0 0 48 48" fill="none" xmlns="http://www.w3.org/2000/svg">
<path fill-rule="evenodd" clip-rule="evenodd" d="M34.8832 32.1614L37.4741 29.5335L35.5538 35.5039C35.1339 35.9983 34.6902 36.4826 34.2262 36.9499L34.8798 32.158L34.8832 32.1614ZM23.9983 47.9966C37.2505 47.9966 48 37.2513 48 23.9966C48 10.7419 37.2539 0 24.0017 0C10.7495 0 0 10.7453 0 24C0.345446 36.2286 14.59 40.1298 29.1156 33.4144L28.2825 33.2993L24.7603 32.8082L26.5316 31.7144L29.3866 31.22L29.136 32.1039L32.6175 29.7604L34.829 29.4827L32.1976 28.8935L22.288 26.6753L24.2794 25.9642L36.8543 26.909L38.822 25.5849C40.495 24.4606 40.8066 24.2641 41.8497 24.5859L38.1887 27.9825L36.3226 29.6757C28.1538 37.7762 16.4832 41.9416 6.76667 40.7055C11.1288 45.2028 17.235 48 23.9949 48L23.9983 47.9966Z" fill="white"/>
</svg>
