<svg width="30" height="24" viewBox="0 0 30 24" fill="none" xmlns="http://www.w3.org/2000/svg">
<path d="M6.408 11.728C5.64 11.728 4.968 11.92 4.488 12.112C5.16 8.368 7.752 4.144 10.824 2.128L9.672 0.879997C4.872 3.376 0.36 10.672 0.36 16.528C0.36 21.136 3.336 23.536 6.504 23.536C9.768 23.536 12.36 20.944 12.36 17.584C12.36 14.224 9.768 11.728 6.408 11.728ZM23.88 11.728C23.112 11.728 22.44 11.92 21.96 12.112C22.632 8.368 25.224 4.144 28.2 2.128L27.144 0.879997C22.344 3.376 17.736 10.672 17.736 16.528C17.736 21.136 20.808 23.536 23.88 23.536C27.24 23.536 29.832 20.944 29.832 17.584C29.832 14.224 27.24 11.728 23.88 11.728Z" fill="#230751"/>
</svg>
