<svg width="185" height="64" viewBox="0 0 185 64" fill="none" xmlns="http://www.w3.org/2000/svg">
<g clip-path="url(#clip0_12_2475)">
<mask id="mask0_12_2475" style="mask-type:luminance" maskUnits="userSpaceOnUse" x="0" y="0" width="185" height="64">
<path d="M185 0H0V64H185V0Z" fill="white"/>
</mask>
<g mask="url(#mask0_12_2475)">
<path d="M24.1493 58.8935C22.7432 59.0744 21.3448 59.1411 19.9361 59.118C13.5159 59.0719 7.06235 55.7078 3.74219 50.0945C2.3783 47.8043 1.59528 45.1779 1.42767 42.5118C1.36754 41.3224 1.33172 40.1113 1.30357 38.9219C1.21401 36.1121 1.26518 32.1783 1.22552 29.3197C1.21784 26.5368 1.06431 22.4722 1.09246 19.7419C1.14364 18.6642 1.18586 17.5531 1.4136 16.4907H1.28566C0.969633 17.539 0.738053 18.6129 0.602432 19.7021C0.19173 22.4542 0.269776 26.524 0.205804 29.321C0.203245 32.1526 -0.0232163 42.1231 0.00109313 43.7807C0.167421 49.7699 2.87601 55.7219 7.53702 59.5633C12.3157 63.5483 19.235 65.1508 25.1908 63.1224C29.6548 61.516 33.1771 57.9915 35.4519 53.9385L35.3022 53.8692C32.4657 56.9882 28.1834 58.4291 24.1468 58.8935" fill="white"/>
<path d="M27.8228 41.9664C24.0778 38.1096 20.7359 36.5123 17.957 35.8092L18.0299 35.8015C23.4675 34.9957 27.9827 29.8803 27.9827 24.2927C27.9827 18.2035 22.8739 12.7596 16.8016 12.7596V12.7557H3.09365C3.44422 12.0706 5.0013 10.2628 6.2462 9.27488C8.68994 7.33366 11.5405 6.10965 14.5306 5.43606C20.1794 4.13507 26.2733 5.03447 31.0546 8.396C34.7996 10.9903 37.5913 15.1088 38.3027 19.6713C38.6673 21.8768 38.5995 24.7033 38.6776 26.9499C38.6955 29.326 38.7236 31.9639 38.7198 34.3234C38.707 37.5926 38.8989 40.8656 38.8042 44.1296C38.762 45.1804 38.6852 46.2363 38.4984 47.2692L38.6571 47.3436C38.9616 46.321 39.1407 45.2587 39.2712 44.204C39.6141 40.9297 39.6781 37.6105 39.7344 34.3234C39.7472 31.1518 40.0299 20.9594 39.9058 19.4891C39.4708 12.3901 35.5199 5.6144 29.1252 2.23619C25.8895 0.498966 22.142 -0.233643 18.4815 0.0653024C11.007 0.705533 5.71907 6.20074 2.76995 12.7275L2.66504 12.9559H9.36165C15.4659 13.301 23.4714 15.0857 23.4714 24.2876C23.4714 33.4895 15.361 35.346 9.27465 35.7078H5.16635V35.9105H9.33094C10.5822 35.9606 16.0979 36.6303 22.8969 44.1206C28.1388 49.9007 35.3484 52.8221 42.8921 49.9186C35.3011 52.0138 33.2642 47.5591 27.8228 41.9664Z" fill="white"/>
<path d="M78.0218 10.9929C78.4735 10.9929 78.8612 10.83 79.1721 10.5079C79.4817 10.1885 79.6391 9.79715 79.6391 9.34681C79.6391 8.89647 79.4817 8.50514 79.1721 8.18567C78.8612 7.86363 78.4735 7.70068 78.0218 7.70068C77.5702 7.70068 77.1582 7.86363 76.8473 8.18567C76.5377 8.50643 76.3816 8.89647 76.3816 9.34681C76.3816 9.79715 76.539 10.1885 76.8473 10.5079C77.1582 10.83 77.5536 10.9929 78.0218 10.9929Z" fill="white"/>
<path d="M92.8454 26.2161C92.3963 26.2161 92.0061 26.3739 91.6875 26.6844C91.3663 26.9962 91.2039 27.3837 91.2039 27.8379C91.2039 28.2921 91.3663 28.7039 91.6875 29.0157C92.0061 29.3262 92.3963 29.4827 92.8454 29.4827C93.2945 29.4827 93.6847 29.3249 94.0033 29.0144C94.3244 28.7014 94.4869 28.3049 94.4869 27.8366C94.4869 27.3683 94.3244 26.9949 94.0033 26.6831C93.6834 26.3727 93.2945 26.2148 92.8454 26.2148" fill="white"/>
<path d="M96.8629 26.2161C96.4151 26.2161 96.021 26.3726 95.6947 26.6818C95.3646 26.9936 95.197 27.3823 95.197 27.8378C95.197 28.2933 95.3646 28.7051 95.6947 29.0182C96.021 29.3274 96.4138 29.4839 96.8629 29.4839C97.3119 29.4839 97.7022 29.3261 98.022 29.0156C98.3432 28.7026 98.5057 28.3061 98.5057 27.8378C98.5057 27.3695 98.3432 26.9974 98.022 26.6844C97.7022 26.3739 97.3132 26.2161 96.8641 26.2161" fill="white"/>
</g>
<mask id="mask1_12_2475" style="mask-type:luminance" maskUnits="userSpaceOnUse" x="0" y="0" width="185" height="64">
<path d="M185 0H0V64H185V0Z" fill="white"/>
</mask>
<g mask="url(#mask1_12_2475)">
<path d="M98.2101 13.7053H95.5872V23.3755H89.4088V5.20142H86.8115V24.5174H98.2101V13.7053Z" fill="white"/>
</g>
<mask id="mask2_12_2475" style="mask-type:luminance" maskUnits="userSpaceOnUse" x="0" y="0" width="185" height="64">
<path d="M185 0H0V64H185V0Z" fill="white"/>
</mask>
<g mask="url(#mask2_12_2475)">
<path d="M117.724 5.20142H120.322V24.5174H117.724V5.20142Z" fill="white"/>
</g>
<mask id="mask3_12_2475" style="mask-type:luminance" maskUnits="userSpaceOnUse" x="0" y="0" width="185" height="64">
<path d="M185 0H0V64H185V0Z" fill="white"/>
</mask>
<g mask="url(#mask3_12_2475)">
<path d="M144.696 5.20142H147.294V24.5174H144.696V5.20142Z" fill="white"/>
</g>
<mask id="mask4_12_2475" style="mask-type:luminance" maskUnits="userSpaceOnUse" x="0" y="0" width="185" height="64">
<path d="M185 0H0V64H185V0Z" fill="white"/>
</mask>
<g mask="url(#mask4_12_2475)">
<path d="M163.999 26.2163C163.55 26.2163 163.157 26.3728 162.831 26.682C162.501 26.9938 162.333 27.3839 162.333 27.8381C162.333 28.2922 162.501 28.7054 162.831 29.0184C163.157 29.3277 163.55 29.4842 163.999 29.4842C164.448 29.4842 164.838 29.3264 165.157 29.0159C165.478 28.7028 165.641 28.3064 165.641 27.8381C165.641 27.3698 165.478 26.9964 165.157 26.6846C164.838 26.3741 164.448 26.2163 163.999 26.2163Z" fill="white"/>
<path d="M159.982 26.2161C159.531 26.2161 159.142 26.3739 158.824 26.6844C158.503 26.9962 158.34 27.3837 158.34 27.8379C158.34 28.2921 158.503 28.7039 158.824 29.0157C159.142 29.3262 159.533 29.4827 159.982 29.4827C160.431 29.4827 160.821 29.3249 161.14 29.0144C161.461 28.7014 161.623 28.3062 161.623 27.8366C161.623 27.367 161.461 26.9949 161.14 26.6831C160.821 26.3727 160.431 26.2148 159.982 26.2148" fill="white"/>
<path d="M112.058 23.3769C111.173 23.3769 107.805 23.3743 107.297 23.3743C106.754 23.3743 105.488 23.1074 105.442 20.6337C105.442 20.1577 105.44 19.769 105.435 19.4816V13.7041H102.814V24.0299C102.821 26.0738 102.519 27.2927 101.832 27.9816C101.345 28.4718 100.618 28.6308 99.3232 28.5295L99.0955 28.5115V29.0004L99.2298 29.053C99.8989 29.3186 100.624 29.4584 101.331 29.4584C102.128 29.4584 103.581 29.2672 104.359 27.9906C105.138 26.7114 105.369 25.0089 105.425 23.3615C105.866 24.1005 106.587 24.5316 107.44 24.5162H114.68V5.2002H112.059V23.3756L112.058 23.3769Z" fill="white"/>
<path d="M139.128 21.895C139.128 22.7058 139.04 23.4615 138.867 24.1403C138.692 24.8254 138.401 25.4258 138.001 25.9262C137.6 26.4279 137.076 26.8269 136.442 27.1117C135.809 27.3953 135.018 27.539 134.092 27.539C133.347 27.539 132.635 27.4299 131.971 27.2131C131.482 27.054 129.995 26.569 129.009 24.3532C128.162 22.4505 128.336 20.789 128.411 20.0795C128.418 20.0166 128.424 19.9614 128.428 19.9152C128.473 19.42 128.744 17.9394 129.13 16.75L129.189 16.5678L128.752 16.3741L128.653 16.5255C128.599 16.6089 127.32 18.595 126.918 20.1565C125.879 24.1993 127.216 26.528 128.106 27.5557C130.238 30.0204 132.903 30.0204 134.041 30.0204C134.899 30.0204 135.728 29.8933 136.506 29.6419C137.284 29.3891 138.002 29.0235 138.64 28.5539C139.28 28.083 139.838 27.5069 140.299 26.8436C140.915 25.9532 141.651 24.3661 141.651 21.8654V13.7041H139.129V21.8962L139.128 21.895Z" fill="white"/>
<path d="M135.134 10.9932C135.585 10.9932 135.972 10.8302 136.284 10.5082C136.594 10.1887 136.751 9.79739 136.751 9.34705C136.751 8.89671 136.594 8.50539 136.284 8.18591C135.973 7.86387 135.585 7.70093 135.134 7.70093C134.682 7.70093 134.27 7.86387 133.959 8.18591C133.65 8.50539 133.492 8.89671 133.492 9.34705C133.492 9.79739 133.65 10.1887 133.959 10.5082C134.27 10.8302 134.665 10.9932 135.134 10.9932Z" fill="white"/>
<path d="M174.674 16.6537C176.089 15.2142 177.149 14.9255 178.401 14.9255C178.983 14.9255 179.52 15.0191 179.995 15.2026C180.473 15.3887 180.894 15.6786 181.246 16.0648C181.598 16.451 181.873 16.9514 182.065 17.5531C182.255 18.1523 182.351 18.8759 182.351 19.7035V23.3742H171.928C172.029 22.9393 172.228 22.0848 172.308 21.7871C172.33 21.7037 172.356 21.5985 172.386 21.4792C172.507 20.9955 172.69 20.2667 172.928 19.6278C173.404 18.346 173.992 17.3453 174.672 16.6537M184.607 16.664C184.349 15.8377 183.976 15.1141 183.499 14.5149C183.024 13.9183 182.432 13.4474 181.741 13.1164C181.048 12.7854 180.256 12.6173 179.384 12.6173C178.691 12.6173 177.978 12.7482 177.267 13.0074C176.556 13.2665 175.876 13.6694 175.245 14.2044C174.613 14.7407 174.025 15.4297 173.499 16.2509C172.972 17.0733 172.539 18.0599 172.214 19.1826L172.054 19.733V5.20142H169.531L169.52 23.3845H165.593C165.542 23.3845 165.493 23.3806 165.45 23.3781L165.383 23.3704C164.676 23.2857 164.211 22.8661 163.965 22.0886C163.846 21.7178 163.787 21.2906 163.788 20.821C163.788 20.549 163.791 20.3476 163.791 20.1897C163.793 19.8228 163.793 19.6855 163.785 19.4328V13.7053H161.188V21.7319L161.186 21.7961C161.142 22.8944 161.124 23.3486 159.89 23.3794C158.559 23.3794 156.768 23.3781 156.408 23.3781C154.781 23.3781 154.57 21.4599 154.554 20.635C154.554 20.1602 154.553 19.7702 154.548 19.4828V13.7053H151.926V24.0311C151.934 26.075 151.631 27.2939 150.946 27.9841C150.46 28.4743 149.732 28.6334 148.437 28.532L148.209 28.514V29.0029L148.344 29.0555C149.013 29.3211 149.738 29.4609 150.445 29.4609C151.242 29.4609 152.695 29.2697 153.473 27.9931C154.252 26.7139 154.483 25.0114 154.539 23.364C154.98 24.103 155.703 24.5328 156.554 24.5187H159.449H159.46C159.521 24.5212 160.46 24.5212 160.47 24.5212C161.92 24.5212 163.023 23.9272 163.512 22.9277C163.906 23.9323 164.732 24.5392 165.742 24.5225H185.004V19.4109C185.004 18.4192 184.872 17.4967 184.614 16.6666" fill="white"/>
<path d="M73.4081 16.6538C74.8231 15.2143 75.8825 14.9256 77.1351 14.9256C77.7173 14.9256 78.2546 15.0193 78.7306 15.2027C79.2091 15.3888 79.63 15.6787 79.9819 16.0649C80.3337 16.4511 80.6088 16.9515 80.8007 17.5532C80.9914 18.1524 81.0886 18.876 81.0886 19.7036V23.3743H70.7123C70.7955 22.9432 70.9643 22.0836 71.0437 21.7872C71.0654 21.7038 71.0923 21.5999 71.1217 21.4793C71.2433 20.9956 71.4275 20.2656 71.6642 19.6279C72.1402 18.3462 72.7274 17.3454 73.4081 16.6538ZM83.343 16.6641C83.0845 15.8378 82.7122 15.1155 82.235 14.515C81.7603 13.9184 81.1679 13.4476 80.477 13.1165C79.7836 12.7855 78.9916 12.6174 78.1203 12.6174C77.4268 12.6174 76.7154 12.7483 76.0028 13.0075C75.2914 13.2666 74.612 13.6695 73.9813 14.2045C73.3479 14.7421 72.7607 15.4298 72.2348 16.251C71.7077 17.0721 71.2752 18.0588 70.9503 19.1827L70.7903 19.7331V13.9159L70.7852 13.7042H68.2634V21.8963C68.2634 22.7072 68.1752 23.4629 68.0024 24.1416C67.8271 24.8254 67.5367 25.4272 67.1362 25.9276C66.7371 26.4292 66.2125 26.8283 65.5779 27.1131C64.9446 27.3966 64.1539 27.5403 63.2275 27.5403C62.4829 27.5403 61.7703 27.4313 61.1062 27.2144C60.6175 27.0553 59.1308 26.5716 58.1443 24.3546C57.2973 22.4506 57.4726 20.789 57.5468 20.0795C57.5532 20.0167 57.5596 19.9628 57.5634 19.9166C57.6069 19.4213 57.8795 17.9394 58.2659 16.7513L58.3247 16.5692L57.8871 16.3754L57.7886 16.5268C57.7349 16.6102 56.4554 18.5963 56.0537 20.1578C55.0148 24.2019 56.3518 26.5293 57.241 27.557C59.3739 30.0217 62.0389 30.0217 63.1764 30.0217C64.0349 30.0217 64.8639 29.8947 65.6406 29.6432C66.4185 29.3905 67.1362 29.0248 67.7747 28.5552C68.4144 28.0843 68.971 27.5095 69.4328 26.8449C69.8794 26.2008 70.2338 25.4002 70.4628 24.5201H83.7332V19.4098C83.7332 18.418 83.6014 17.4955 83.343 16.6654V16.6641Z" fill="white"/>
</g>
<mask id="mask5_12_2475" style="mask-type:luminance" maskUnits="userSpaceOnUse" x="0" y="0" width="185" height="64">
<path d="M185 0H0V64H185V0Z" fill="white"/>
</mask>
<g mask="url(#mask5_12_2475)">
<path d="M67.1196 38.9412H68.9045V51.2454H67.1196V38.9412Z" fill="white"/>
</g>
<mask id="mask6_12_2475" style="mask-type:luminance" maskUnits="userSpaceOnUse" x="0" y="0" width="185" height="64">
<path d="M185 0H0V64H185V0Z" fill="white"/>
</mask>
<g mask="url(#mask6_12_2475)">
<path d="M80.1955 38.9412L76.0604 45.2383L71.9073 38.9412H69.9011L74.5596 45.9927V51.2454H76.3431V45.9927L81.0016 38.9412H80.1955Z" fill="white"/>
</g>
<mask id="mask7_12_2475" style="mask-type:luminance" maskUnits="userSpaceOnUse" x="0" y="0" width="185" height="64">
<path d="M185 0H0V64H185V0Z" fill="white"/>
</mask>
<g mask="url(#mask7_12_2475)">
<path d="M93.5209 39.5429H96.1041C97.5576 39.5429 98.7909 40.0651 99.6699 41.0556C100.554 42.0499 101.021 43.4459 101.021 45.0933C101.021 46.7407 100.554 48.1366 99.6699 49.131C98.7909 50.1202 97.5576 50.6437 96.1041 50.6437H93.5209V39.5429ZM96.3267 38.9412H91.7361V51.2454H96.3267C100.059 51.2454 102.874 48.6011 102.874 45.0933C102.874 41.5855 100.059 38.9412 96.3267 38.9412Z" fill="white"/>
</g>
<mask id="mask8_12_2475" style="mask-type:luminance" maskUnits="userSpaceOnUse" x="0" y="0" width="185" height="64">
<path d="M185 0H0V64H185V0Z" fill="white"/>
</mask>
<g mask="url(#mask8_12_2475)">
<path d="M113.176 44.6455H106.345V38.9412H104.56V51.2454H106.345V45.3653H113.176V51.2454H114.959V38.9412H113.176V44.6455Z" fill="white"/>
</g>
<mask id="mask9_12_2475" style="mask-type:luminance" maskUnits="userSpaceOnUse" x="0" y="0" width="185" height="64">
<path d="M185 0H0V64H185V0Z" fill="white"/>
</mask>
<g mask="url(#mask9_12_2475)">
<path d="M133.729 38.9412H135.514V51.2454H133.729V38.9412Z" fill="white"/>
</g>
<mask id="mask10_12_2475" style="mask-type:luminance" maskUnits="userSpaceOnUse" x="0" y="0" width="185" height="64">
<path d="M185 0H0V64H185V0Z" fill="white"/>
</mask>
<g mask="url(#mask10_12_2475)">
<path d="M65.0801 49.7443L63.5832 47.182C63.271 46.6188 62.8078 46.2262 62.1118 45.9465C64.0515 45.5346 65.3207 44.1939 65.3207 42.4951C65.3207 40.4692 63.3913 38.9412 60.8337 38.9412H55.9858V51.2454H57.7694V39.5429H60.5407C62.3191 39.5429 63.4668 40.7079 63.4668 42.5118C63.4668 44.2041 62.4624 45.3576 60.7121 45.5924C60.0238 45.6848 59.329 45.6796 58.8697 45.6771C58.7891 45.6771 58.7136 45.6771 58.6458 45.6771H58.5179V45.849H58.8313C59.6527 45.849 60.1479 45.849 60.5164 45.9799C60.9168 46.1235 61.252 46.5444 61.5706 47.0871C61.7792 47.4425 63.2966 50.1561 63.3132 50.1843C63.5589 50.6154 63.8723 50.9644 64.2434 51.2236L64.2766 51.2467H66.4683L66.1421 51.0132C65.78 50.754 65.3539 50.2446 65.0801 49.7455" fill="white"/>
</g>
<mask id="mask11_12_2475" style="mask-type:luminance" maskUnits="userSpaceOnUse" x="0" y="0" width="185" height="64">
<path d="M185 0H0V64H185V0Z" fill="white"/>
</mask>
<g mask="url(#mask11_12_2475)">
<path d="M128.246 45.4294H124.367L126.313 40.976L128.246 45.4294ZM126.453 38.9424L121.071 51.2466H121.833L124.064 46.1492H128.565L130.777 51.2466H132.654L127.291 38.9424H126.454H126.453Z" fill="white"/>
</g>
<mask id="mask12_12_2475" style="mask-type:luminance" maskUnits="userSpaceOnUse" x="0" y="0" width="185" height="64">
<path d="M185 0H0V64H185V0Z" fill="white"/>
</mask>
<g mask="url(#mask12_12_2475)">
<path d="M147.024 49.7443L145.527 47.182C145.214 46.6188 144.751 46.2262 144.054 45.9465C145.994 45.5346 147.263 44.1939 147.263 42.4951C147.263 40.4692 145.333 38.9412 142.776 38.9412H137.928V51.2454H139.713V39.5429H142.484C144.261 39.5429 145.41 40.7079 145.41 42.5118C145.41 44.2041 144.406 45.3576 142.656 45.5924C141.966 45.6848 141.272 45.6796 140.813 45.6771C140.733 45.6771 140.657 45.6771 140.589 45.6771H140.461V45.849H140.775C141.596 45.849 142.091 45.849 142.46 45.9799C142.86 46.1235 143.195 46.5444 143.514 47.0871C143.723 47.4425 145.24 50.1561 145.255 50.1843C145.501 50.6154 145.814 50.9644 146.186 51.2236L146.219 51.2467H148.41L148.084 51.0132C147.722 50.754 147.296 50.2446 147.022 49.7455" fill="white"/>
</g>
<mask id="mask13_12_2475" style="mask-type:luminance" maskUnits="userSpaceOnUse" x="0" y="0" width="185" height="64">
<path d="M185 0H0V64H185V0Z" fill="white"/>
</mask>
<g mask="url(#mask13_12_2475)">
<path d="M86.2486 45.4294H82.3693L84.3154 40.976L86.2486 45.4294ZM84.4548 38.9424L79.0735 51.2466H79.8347L82.0661 46.1492H86.5672L88.7794 51.2466H90.6563L85.2929 38.9424H84.4561H84.4548Z" fill="white"/>
</g>
</g>
<defs>
<clipPath id="clip0_12_2475">
<rect width="185" height="64" fill="white"/>
</clipPath>
</defs>
</svg>
