<svg width="48" height="48" viewBox="0 0 48 48" fill="none" xmlns="http://www.w3.org/2000/svg">
<path fill-rule="evenodd" clip-rule="evenodd" d="M24 48C37.2548 48 48 37.2548 48 24C48 10.7452 37.2548 0 24 0C10.7452 0 0 10.7452 0 24C0 37.2548 10.7452 48 24 48ZM31.9601 20.4559C31.9601 25.8719 27.8321 32.128 20.2881 32.128C17.9761 32.128 15.8161 31.448 14.0081 30.2959C14.3281 30.336 14.6561 30.3519 14.9841 30.3519C16.9041 30.3519 18.6721 29.6959 20.0801 28.5919C18.2881 28.5599 16.7681 27.3759 16.2481 25.7439C16.4961 25.7919 16.7521 25.8159 17.0161 25.8159C17.3921 25.8159 17.7521 25.768 18.0961 25.6719C16.2241 25.2959 14.8081 23.6319 14.8081 21.6479V21.5919C15.3601 21.8959 15.9921 22.0799 16.6641 22.1039C15.5681 21.3679 14.8401 20.1119 14.8401 18.6879C14.8401 17.9359 15.0401 17.2319 15.3921 16.6239C17.4161 19.1039 20.4401 20.7439 23.8481 20.9119C23.7841 20.6079 23.7441 20.2959 23.7441 19.9759C23.7441 17.7119 25.5841 15.8719 27.8481 15.8719C29.0241 15.8719 30.0881 16.3679 30.8401 17.1679C31.7761 16.9839 32.6561 16.6479 33.4481 16.1759C33.1361 17.1359 32.4881 17.9439 31.6401 18.4479C32.4721 18.3439 33.2641 18.1279 34.0001 17.7999C33.4481 18.6239 32.7521 19.3519 31.9521 19.9279C31.9601 20.1039 31.9601 20.2799 31.9601 20.4559Z" fill="white"/>
</svg>
